<svg id="menu-options" xmlns="http://www.w3.org/2000/svg" width="54.03" height="39.365" viewBox="0 0 54.03 39.365">
  <g id="그룹_65" data-name="그룹 65" transform="translate(0 0)">
    <path id="패스_123" data-name="패스 123" d="M2.316,58.464h49.4a2.316,2.316,0,1,0,0-4.631H2.316a2.316,2.316,0,0,0,0,4.631Z" transform="translate(0 -53.833)"/>
    <path id="패스_124" data-name="패스 124" d="M2.316,185.964h49.4a2.316,2.316,0,1,0,0-4.631H2.316a2.316,2.316,0,0,0,0,4.631Z" transform="translate(0 -163.966)"/>
    <path id="패스_125" data-name="패스 125" d="M2.316,313.464h49.4a2.316,2.316,0,1,0,0-4.631H2.316a2.316,2.316,0,1,0,0,4.631Z" transform="translate(0 -274.1)"/>
  </g>
</svg>
