<svg id="left-arrow-sign" xmlns="http://www.w3.org/2000/svg" width="60.688" height="44.948" viewBox="0 0 60.688 44.948">
  <g id="그룹_74" data-name="그룹 74" transform="translate(0)">
    <path id="패스_144" data-name="패스 144" d="M.728,75.815.647,75.9l-.081.081c-.04.04-.04.081-.081.121L.4,76.18c-.04.04-.04.081-.081.121,0,.04-.04.04-.04.081-.04.04-.04.081-.081.162,0,.04-.04.04-.04.081-.04.04-.04.121-.081.162v.04a.366.366,0,0,0-.04.2v.04c0,.081-.04.121-.04.2v.567a.365.365,0,0,0,.04.2v.04c0,.081.04.121.04.2v.04c.04.04.04.121.081.162,0,.04.04.04.04.081.04.04.04.121.081.162,0,.04.04.04.04.081.04.04.04.081.081.121,0,.04.04.04.081.081s.04.081.081.121l.081.081.081.081.04.04,22.51,20.081a2.438,2.438,0,0,0,3.239-3.644L8.744,80.025H58.258a2.429,2.429,0,1,0,0-4.858H8.744l17.733-15.83a2.438,2.438,0,1,0-3.239-3.644L.768,75.774A.04.04,0,0,1,.728,75.815Z" transform="translate(0.001 -55.077)" fill="#000"/>
  </g>
</svg>
