<svg id="그룹_232" data-name="그룹 232" xmlns="http://www.w3.org/2000/svg" width="21" height="21" viewBox="0 0 21 21">
  <g id="그룹_233" data-name="그룹 233">
    <rect id="사각형_116" data-name="사각형 116" width="21" height="21" rx="6" fill="#5b8def"/>
    <path id="합치기_2" data-name="합치기 2" d="M5.01,10.519c-.089,0-.179-.012-.268-.021s-.177-.02-.265-.033-.174-.029-.26-.046-.171-.037-.256-.059-.168-.046-.25-.071-.165-.053-.246-.083-.161-.061-.239-.095-.158-.068-.234-.105-.154-.076-.229-.116-.148-.083-.22-.127-.145-.09-.214-.137-.139-.1-.208-.147-.134-.1-.2-.157-.13-.109-.192-.165-.124-.115-.184-.175-.118-.121-.175-.183-.113-.127-.167-.191-.106-.132-.157-.2S.95,8.276.9,8.205.808,8.064.765,7.992s-.087-.146-.128-.22-.079-.15-.116-.227S.448,7.39.415,7.312.35,7.153.32,7.073.263,6.91.238,6.828s-.049-.166-.071-.25S.125,6.409.107,6.323.074,6.151.061,6.064.036,5.889.027,5.8s-.015-.178-.02-.267S0,5.353,0,5.263s0-.181.007-.271.011-.179.02-.267.021-.176.034-.264S.09,4.288.107,4.2s.038-.17.059-.255S.212,3.78.238,3.7s.053-.164.083-.245.061-.16.095-.238.069-.157.106-.233S.6,2.829.637,2.754s.084-.148.128-.22S.855,2.39.9,2.32s.1-.139.148-.206.1-.134.157-.2.11-.129.167-.191.115-.123.175-.183.122-.118.184-.175.127-.112.192-.166.132-.105.2-.156.138-.1.208-.147S2.47.806,2.543.762s.147-.086.22-.127.152-.08.229-.116.155-.073.234-.105.159-.066.239-.095.163-.058.246-.083.167-.049.25-.071.17-.041.256-.058.174-.033.26-.047.176-.024.265-.033.179-.015.268-.02S5.192,0,5.282,0s.182,0,.272.007.179.011.268.02S6,.048,6.087.06s.174.029.26.047.171.037.256.058.168.045.25.071S7.017.29,7.1.319s.161.061.239.095.157.068.234.105.153.076.228.116.149.083.221.127.144.089.214.137.139.1.207.147l.013.009h0s.028.023.064.059a.937.937,0,0,1,.064.07,1.019,1.019,0,0,1,.072.1.931.931,0,0,1,.122.253.606.606,0,0,1,.019.075.6.6,0,0,1,.011.079.623.623,0,0,1,0,.082.7.7,0,0,1-.008.086.039.039,0,0,1,0,0,.011.011,0,0,1,0,.005c-.005.036-.01.067-.016.1a.82.82,0,0,1-.023.1c-.011.035-.025.074-.043.117s-.044.1-.075.162a.988.988,0,0,1-.061.1c-.023.035-.05.073-.082.112-.054.068-.121.145-.2.226s-.145.148-.19.192-.1.094-.121.112c-.073.05-.135.092-.184.123a.561.561,0,0,1-.223.057l-.033,0a1.471,1.471,0,0,1-.164-.03c-.045-.012-.091-.025-.137-.041a1.27,1.27,0,0,1-.129-.051h0L7.11,3.131c-.07-.057-.144-.11-.22-.159s-.155-.1-.235-.139a2.713,2.713,0,0,0-.248-.116,2.743,2.743,0,0,0-.262-.093c-.045-.013-.09-.026-.136-.038s-.092-.022-.138-.031-.094-.017-.14-.024-.095-.013-.142-.018-.1-.008-.145-.01-.1,0-.147,0-.1,0-.147,0-.1.005-.145.01-.1.011-.142.018-.095.015-.14.024-.093.02-.138.031-.091.024-.135.038a2.578,2.578,0,0,0-.262.093c-.085.034-.168.074-.249.116s-.159.089-.235.139-.149.1-.22.159-.138.116-.2.178-.126.128-.184.2a2.619,2.619,0,0,0-.164.212c-.051.074-.1.15-.143.228a2.518,2.518,0,0,0-.12.242c-.018.041-.036.084-.051.125s-.031.086-.045.129-.027.087-.039.131-.022.089-.032.133-.018.091-.025.136-.013.093-.018.139-.008.094-.011.14,0,.095,0,.142,0,.1,0,.142.006.094.011.14.011.093.018.138.016.092.025.137.02.089.032.133.025.088.039.131.029.086.045.128.033.085.051.126a2.681,2.681,0,0,0,.263.469,2.484,2.484,0,0,0,.164.213c.058.068.12.134.184.2s.132.122.2.178.144.11.22.159.155.1.235.139.165.081.249.116.173.066.262.093c.044.013.09.026.135.037s.092.023.138.032.094.017.14.024.1.013.142.017l.145.011c.049,0,.1,0,.147,0s.1,0,.147,0l.145-.011c.048,0,.1-.011.142-.017s.095-.015.14-.024.093-.02.138-.032.091-.023.136-.037c.088-.027.176-.058.262-.093s.168-.074.248-.116.159-.089.235-.139c.054-.035.107-.073.158-.112v0A.745.745,0,0,1,7.127,7.4c.027-.015.055-.029.082-.041s.066-.029.1-.04.063-.02.092-.027l.075-.016a.784.784,0,0,1,.111-.011h0a.35.35,0,0,1,.076.013.988.988,0,0,1,.118.038,1.082,1.082,0,0,1,.138.067.9.9,0,0,1,.134.1,1.386,1.386,0,0,1,.158.163c.041.051.079.105.126.175l.08.115c.035.049.07.1.1.156s.053.087.078.131c.041.075.065.123.066.125a.656.656,0,0,1,.04.073c.013.026.024.054.034.081a.794.794,0,0,1,.03.1.807.807,0,0,1,.018.1.78.78,0,0,1,0,.086v0c0,.015,0,.029,0,.04h0c0,.027,0,.049,0,.073a.635.635,0,0,1-.009.084.853.853,0,0,1-.064.152,1.3,1.3,0,0,1-.083.138c-.028.042-.054.078-.071.1l-.031.038h0l-.09.068c-.068.05-.137.1-.207.147s-.142.094-.214.137-.147.086-.221.127-.151.079-.228.116-.155.072-.234.105-.159.065-.239.095-.164.057-.246.083-.167.049-.25.071-.17.041-.256.059-.174.033-.26.046-.176.025-.265.033-.179.016-.268.021-.182.007-.272.007S5.1,10.524,5.01,10.519ZM12.336,6.8c-.049-.005-.1-.013-.148-.023s-.1-.023-.142-.039a1.243,1.243,0,0,1-.136-.052,1.339,1.339,0,0,1-.13-.065,1.416,1.416,0,0,1-.122-.078,1.216,1.216,0,0,1-.114-.089,1.381,1.381,0,0,1-.105-.1c-.034-.035-.066-.072-.1-.11s-.058-.079-.085-.12-.051-.085-.074-.128-.044-.09-.063-.136-.035-.095-.05-.142-.027-.1-.037-.148-.017-.1-.023-.155a1.746,1.746,0,0,1,0-.317c.005-.051.013-.1.023-.154s.023-.1.037-.148.031-.1.05-.143a1.418,1.418,0,0,1,.063-.135c.023-.044.048-.087.074-.128s.056-.082.085-.12.062-.076.1-.111.068-.068.105-.1a1.387,1.387,0,0,1,.114-.089,1.222,1.222,0,0,1,.122-.077,1.345,1.345,0,0,1,.13-.066c.044-.02.09-.037.136-.052a1.325,1.325,0,0,1,.142-.038,1.171,1.171,0,0,1,.148-.023,1.435,1.435,0,0,1,.152-.008,1.406,1.406,0,0,1,.151.008,1.171,1.171,0,0,1,.148.023,1.271,1.271,0,0,1,.142.038c.046.015.092.032.137.052s.087.041.13.066.083.049.122.077.077.058.114.089.072.066.105.1.066.073.1.111a1.255,1.255,0,0,1,.085.12,1.282,1.282,0,0,1,.075.128,1.412,1.412,0,0,1,.062.135c.019.047.036.095.05.143s.027.1.037.148.017.1.023.154.007.105.007.158,0,.106-.007.158-.013.1-.023.155-.023.1-.037.148-.031.1-.05.142-.04.092-.062.136-.048.086-.075.128-.055.081-.085.12-.062.075-.1.11-.069.068-.105.1a1.345,1.345,0,0,1-.114.089c-.04.028-.081.054-.122.078s-.086.046-.13.065a1.333,1.333,0,0,1-.137.052c-.046.015-.095.028-.142.039s-.1.018-.148.023a1.406,1.406,0,0,1-.151.008A1.435,1.435,0,0,1,12.336,6.8Zm-.629-1.551a.786.786,0,1,0,1.568,0,.786.786,0,1,0-1.568,0ZM7.377,6.7c-.052-.067-.248-.524-.251-.528S7.1,6.119,7.08,6.119H5.988c-.036,0-.074.05-.076.053l0,0c-.053.115-.23.495-.249.524l0,.007a.159.159,0,0,1-.14.08l-.061,0a.475.475,0,0,1-.237-.06c-.086-.049-.191-.129-.2-.221a.371.371,0,0,1,.039-.2l.6-1.227.007-.014.006-.014.5-1.028.009-.019a.56.56,0,0,1,.1-.162.31.31,0,0,1,.24-.108.331.331,0,0,1,.251.108.494.494,0,0,1,.092.139l.022.042c.023.04.765,1.58,1.083,2.241l.019.041a.32.32,0,0,1-.167.428A.526.526,0,0,1,7.58,6.8.243.243,0,0,1,7.377,6.7ZM6.367,5.258a.178.178,0,0,0,.007.174.176.176,0,0,0,.151.085.178.178,0,0,0,.159-.258.178.178,0,0,0-.318,0Zm2.22,1.5a.251.251,0,0,1-.1-.021.24.24,0,0,1-.082-.055.219.219,0,0,1-.031-.039A.2.2,0,0,1,8.349,6.6a.258.258,0,0,1-.02-.1v-2.5a.255.255,0,0,1,.02-.1.236.236,0,0,1,.024-.044.251.251,0,0,1,.031-.038.213.213,0,0,1,.038-.031.258.258,0,0,1,.044-.023.251.251,0,0,1,.1-.021H9.936a.25.25,0,0,1,.078.014.5.5,0,0,1,.093.04,1.041,1.041,0,0,1,.2.15,1.086,1.086,0,0,1,.1.1,1.105,1.105,0,0,1,.088.12,1,1,0,0,1,.071.132.885.885,0,0,1,.047.143.845.845,0,0,1,.02.142.879.879,0,0,1-.049.349c-.01.028-.021.056-.033.083a.663.663,0,0,1-.031.062c-.019.033-.032.052-.032.052s.019.025.044.066c.015.025.031.051.044.077s.034.068.049.1a1.228,1.228,0,0,1,.082.263,1.009,1.009,0,0,1,.018.154q0,.04,0,.081c0,.028,0,.056-.007.083a.823.823,0,0,1-.113.314,1.086,1.086,0,0,1-.094.136,1.11,1.11,0,0,1-.108.118,1.271,1.271,0,0,1-.113.1,1.061,1.061,0,0,1-.111.073A.406.406,0,0,1,10,6.755Zm.479-2.309a.029.029,0,0,0-.018.007.025.025,0,0,0-.007.018V6.011a.026.026,0,0,0,.025.026h.709l.02,0,.04-.013A.32.32,0,0,0,9.884,6a.256.256,0,0,0,.05-.042A.278.278,0,0,0,10,5.735a.35.35,0,0,0-.042-.154A.247.247,0,0,0,9.884,5.5a.254.254,0,0,0-.04-.023l-.035-.014a.212.212,0,0,0-.034-.008H9.512a.119.119,0,0,1-.063-.016A.1.1,0,0,1,9.413,5.4.153.153,0,0,1,9.4,5.364a.11.11,0,0,1,0-.016V4.995a.169.169,0,0,1,0-.018.14.14,0,0,1,.015-.04A.122.122,0,0,1,9.449,4.9a.1.1,0,0,1,.063-.019h.254a.153.153,0,0,0,.094-.029.214.214,0,0,0,.055-.177.257.257,0,0,0-.065-.188.112.112,0,0,0-.027-.019A.1.1,0,0,0,9.8,4.453a.219.219,0,0,0-.051-.008H9.066Z" transform="translate(3.523 5.246)" fill="#fff"/>
  </g>
</svg>
