<svg xmlns="http://www.w3.org/2000/svg" width="24" height="24" viewBox="0 0 24 24">
  <g id="그룹_2" data-name="그룹 2" transform="translate(-460 -3830)">
    <g id="패스_466" data-name="패스 466" transform="translate(460 3830)" fill="#fff">
      <path d="M 17.14286041259766 23 L 6.857140064239502 23 C 3.627500057220459 23 1 20.37249946594238 1 17.14286041259766 L 1 6.857140064239502 C 1 3.627500057220459 3.627500057220459 1 6.857140064239502 1 L 17.14286041259766 1 C 20.37249946594238 1 23 3.627500057220459 23 6.857140064239502 L 23 17.14286041259766 C 23 20.37249946594238 20.37249946594238 23 17.14286041259766 23 Z" stroke="none"/>
      <path d="M 6.857139587402344 2 C 4.178899765014648 2 2 4.178899765014648 2 6.857139587402344 L 2 17.14286041259766 C 2 19.82110023498535 4.178899765014648 22 6.857139587402344 22 L 17.14286041259766 22 C 19.82110023498535 22 22 19.82110023498535 22 17.14286041259766 L 22 6.857139587402344 C 22 4.178899765014648 19.82110023498535 2 17.14286041259766 2 L 6.857139587402344 2 M 6.857139587402344 0 L 17.14286041259766 0 C 20.92995071411133 0 24 3.070049285888672 24 6.857139587402344 L 24 17.14286041259766 C 24 20.92995071411133 20.92995071411133 24 17.14286041259766 24 L 6.857139587402344 24 C 3.070049285888672 24 0 20.92995071411133 0 17.14286041259766 L 0 6.857139587402344 C 0 3.070049285888672 3.070049285888672 0 6.857139587402344 0 Z" stroke="none" fill="#5b8def"/>
    </g>
    <g id="그룹_79" data-name="그룹 79" transform="matrix(0.809, 0.588, -0.588, 0.809, 2348.789, 451.967)">
      <line id="선_31" data-name="선 31" x2="7.375" transform="translate(469.5 3848.53)" fill="none" stroke="#5b8def" stroke-width="2"/>
      <line id="선_32" data-name="선 32" y1="12.03" transform="translate(475.875 3837.5)" fill="none" stroke="#5b8def" stroke-width="2"/>
    </g>
  </g>
</svg>
