<svg xmlns="http://www.w3.org/2000/svg" width="187.508" height="121.463" viewBox="0 0 187.508 121.463">
  <g id="undraw_notify_re_65on" transform="translate(0 -0.047)">
    <path id="패스_475" data-name="패스 475" d="M908.355,651.2,903,635.042s5.891,5.891,5.891,10.724l-1.057-11.177a17.058,17.058,0,0,1,2.719,10.271C910.25,651.053,908.355,651.2,908.355,651.2Z" transform="translate(-737.328 -529.953)" fill="#e6e6e6"/>
    <path id="패스_476" data-name="패스 476" d="M424.227,590.487,419,574.714s5.749,5.749,5.749,10.466l-1.032-10.909a16.648,16.648,0,0,1,2.653,10.024C426.076,590.339,424.227,590.487,424.227,590.487Z" transform="translate(-368.207 -483.952)" fill="#e6e6e6"/>
    <path id="패스_477" data-name="패스 477" d="M491.578,632.791c.009,10.376-20.57,7.184-45.764,7.206s-45.462,3.249-45.47-7.127,20.563-12.65,45.756-12.672S491.569,622.415,491.578,632.791Z" transform="translate(-353.979 -518.978)" fill="#e6e6e6"/>
    <rect id="사각형_118" data-name="사각형 118" width="187.508" height="0.475" transform="translate(0 121.013)" fill="#3f3d56"/>
    <circle id="타원_37" data-name="타원 37" cx="14.951" cy="14.951" r="14.951" transform="translate(70.905 80.858)" fill="#5cdaa7"/>
    <path id="패스_490" data-name="패스 490" d="M413.037,273.692a10.719,10.719,0,0,1-9.792-6.358l-23.723-53.425a14.2,14.2,0,1,1,26.553-9.937l17.179,55.876a10.7,10.7,0,0,1-10.216,13.845Z" transform="translate(-337.166 -193.896)" fill="#5cdaa7"/>
  </g>
</svg>
