<svg xmlns="http://www.w3.org/2000/svg" width="249.541" height="199.332" viewBox="0 0 249.541 199.332">
  <g id="undraw_file_bundle_re_6q1e" transform="translate(-222.077 -1.595)">
    <path id="패스_5" data-name="패스 5" d="M665.53,436.51a72.268,72.268,0,0,1-71.542-63.123l.879-.111A71.276,71.276,0,0,0,736.3,355.409l.879-.111A72.2,72.2,0,0,1,665.53,436.51Z" transform="translate(-299.013 -283.869)" fill="#3f3d56"/>
    <path id="패스_6" data-name="패스 6" d="M817.806,234.472a24.855,24.855,0,1,1,46.5-17.588l-.829.314a23.969,23.969,0,1,0-44.837,16.961Z" transform="translate(-422.744 -197.848)" fill="#3f3d56"/>
    <path id="패스_7" data-name="패스 7" d="M919.973,288.249H874.918a4.559,4.559,0,0,1-4.554-4.554V224.037a4.559,4.559,0,0,1,4.554-4.554h45.054a4.56,4.56,0,0,1,4.555,4.554v59.657a4.56,4.56,0,0,1-4.554,4.554Z" transform="translate(-452.91 -208.243)" fill="#e6e6e6"/>
    <path id="패스_8" data-name="패스 8" d="M906.415,289.165H882.429a4.27,4.27,0,0,1-4.265-4.265V231.813a4.27,4.27,0,0,1,4.265-4.265h38.72a4.27,4.27,0,0,1,4.265,4.265v38.353A19.021,19.021,0,0,1,906.415,289.165Z" transform="translate(-457.252 -212.734)" fill="#fff"/>
    <path id="패스_9" data-name="패스 9" d="M926.228,285.081h-31a1.011,1.011,0,0,1,0-2.022h31a1.011,1.011,0,1,1,0,2.022Z" transform="translate(-466.194 -243.644)" fill="#e4e4e4"/>
    <path id="패스_10" data-name="패스 10" d="M926.228,294.094h-31a1.011,1.011,0,1,1,0-2.022h31a1.011,1.011,0,1,1,0,2.022Z" transform="translate(-466.194 -248.663)" fill="#e4e4e4"/>
    <path id="패스_11" data-name="패스 11" d="M908.669,303.108H895.233a1.011,1.011,0,1,1,0-2.022h13.436a1.011,1.011,0,0,1,0,2.022Z" transform="translate(-466.194 -253.682)" fill="#e4e4e4"/>
    <path id="패스_12" data-name="패스 12" d="M926.228,248.273h-31a1.011,1.011,0,0,1,0-2.022h31a1.011,1.011,0,1,1,0,2.022Z" transform="translate(-466.194 -223.148)" fill="#e4e4e4"/>
    <path id="패스_13" data-name="패스 13" d="M926.228,257.286h-31a1.011,1.011,0,0,1,0-2.022h31a1.011,1.011,0,1,1,0,2.022Z" transform="translate(-466.194 -228.167)" fill="#e4e4e4"/>
    <path id="패스_14" data-name="패스 14" d="M908.669,266.3H895.233a1.011,1.011,0,0,1,0-2.022h13.436a1.011,1.011,0,0,1,0,2.022Z" transform="translate(-466.194 -233.186)" fill="#e4e4e4"/>
    <path id="패스_15" data-name="패스 15" d="M926.228,323.177h-31a1.011,1.011,0,0,1,0-2.022h31a1.011,1.011,0,1,1,0,2.022Z" transform="translate(-466.194 -264.857)" fill="#5cdaa7"/>
    <path id="패스_16" data-name="패스 16" d="M900.082,332.19h-4.849a1.011,1.011,0,0,1,0-2.022h4.849a1.011,1.011,0,1,1,0,2.022Z" transform="translate(-466.194 -269.876)" fill="#5cdaa7"/>
    <path id="패스_17" data-name="패스 17" d="M908.669,341.2H895.233a1.011,1.011,0,1,1,0-2.022h13.436a1.011,1.011,0,0,1,0,2.022Z" transform="translate(-466.194 -274.895)" fill="#5cdaa7"/>
    <path id="패스_18" data-name="패스 18" d="M592.1,299.241a41.671,41.671,0,0,1,77.952-29.487l-.829.314a40.785,40.785,0,0,0-76.293,28.86Z" transform="translate(-296.457 -221.234)" fill="#3f3d56"/>
    <circle id="타원_5" data-name="타원 5" cx="4.23" cy="4.23" r="4.23" transform="translate(368.89 1.595)" fill="#e6e6e6"/>
    <circle id="타원_6" data-name="타원 6" cx="4.23" cy="4.23" r="4.23" transform="translate(374.651 123.465)" fill="#e6e6e6"/>
    <circle id="타원_7" data-name="타원 7" cx="4.23" cy="4.23" r="4.23" transform="translate(266.076 22.867)" fill="#e6e6e6"/>
    <path id="패스_19" data-name="패스 19" d="M536.129,461.782H439.283a9.8,9.8,0,0,1-9.789-9.79V323.757a9.8,9.8,0,0,1,9.79-9.79h96.846a9.8,9.8,0,0,1,9.79,9.79V451.993A9.8,9.8,0,0,1,536.129,461.782Z" transform="translate(-207.417 -260.855)" fill="#e6e6e6"/>
    <path id="패스_20" data-name="패스 20" d="M508.82,463.818H455.745a8.924,8.924,0,0,1-8.914-8.914V340.793a8.924,8.924,0,0,1,8.914-8.914h83.231a8.924,8.924,0,0,1,8.914,8.914v83.956A39.114,39.114,0,0,1,508.82,463.818Z" transform="translate(-217.071 -270.829)" fill="#fff"/>
    <path id="패스_21" data-name="패스 21" d="M549.576,375.853H482.951a2.173,2.173,0,1,1,0-4.346h66.625a2.173,2.173,0,1,1,0,4.346Z" transform="translate(-235.974 -292.895)" fill="#5cdaa7"/>
    <path id="패스_22" data-name="패스 22" d="M549.576,395.226H482.951a2.173,2.173,0,1,1,0-4.346h66.625a2.173,2.173,0,1,1,0,4.346Z" transform="translate(-235.974 -303.683)" fill="#5cdaa7"/>
    <path id="패스_23" data-name="패스 23" d="M511.83,414.6H482.95a2.173,2.173,0,0,1,0-4.346h28.88a2.173,2.173,0,0,1,0,4.346Z" transform="translate(-235.973 -314.472)" fill="#5cdaa7"/>
    <path id="패스_24" data-name="패스 24" d="M549.576,455.179H482.951a2.173,2.173,0,1,1,0-4.346h66.625a2.173,2.173,0,1,1,0,4.346Z" transform="translate(-235.974 -337.067)" fill="#e4e4e4"/>
    <path id="패스_25" data-name="패스 25" d="M549.576,474.553H482.951a2.173,2.173,0,0,1,0-4.346h66.625a2.173,2.173,0,1,1,0,4.346Z" transform="translate(-235.974 -347.855)" fill="#e4e4e4"/>
    <path id="패스_26" data-name="패스 26" d="M511.83,493.927H482.95a2.173,2.173,0,0,1,0-4.346h28.88a2.173,2.173,0,0,1,0,4.346Z" transform="translate(-235.973 -358.643)" fill="#e4e4e4"/>
    <path id="패스_27" data-name="패스 27" d="M549.576,534.506H482.951a2.173,2.173,0,0,1,0-4.346h66.625a2.173,2.173,0,0,1,0,4.346Z" transform="translate(-235.974 -381.239)" fill="#e4e4e4"/>
    <path id="패스_28" data-name="패스 28" d="M549.576,553.879H482.951a2.173,2.173,0,1,1,0-4.346h66.625a2.173,2.173,0,1,1,0,4.346Z" transform="translate(-235.974 -392.027)" fill="#e4e4e4"/>
    <path id="패스_29" data-name="패스 29" d="M511.83,573.254H482.95a2.173,2.173,0,0,1,0-4.346h28.88a2.173,2.173,0,1,1,0,4.346Z" transform="translate(-235.973 -402.815)" fill="#e4e4e4"/>
    <path id="패스_30" data-name="패스 30" d="M770.639,338.6H721.594a4.963,4.963,0,0,1-4.958-4.958V268.7a4.963,4.963,0,0,1,4.958-4.958h49.045A4.963,4.963,0,0,1,775.6,268.7v64.941A4.963,4.963,0,0,1,770.639,338.6Z" transform="translate(-367.308 -232.886)" fill="#e6e6e6"/>
    <path id="패스_31" data-name="패스 31" d="M757.209,339.6H729.793a4.629,4.629,0,0,1-4.623-4.623V277.186a4.629,4.629,0,0,1,4.623-4.624h42.15a4.629,4.629,0,0,1,4.623,4.624v43.055A19.379,19.379,0,0,1,757.209,339.6Z" transform="translate(-372.06 -237.799)" fill="#fff"/>
    <path id="패스_32" data-name="패스 32" d="M777.447,295.079h-33.74a1.1,1.1,0,0,1,0-2.2h33.74a1.1,1.1,0,1,1,0,2.2Z" transform="translate(-381.769 -249.112)" fill="#e4e4e4"/>
    <path id="패스_33" data-name="패스 33" d="M777.447,304.891h-33.74a1.1,1.1,0,1,1,0-2.2h33.74a1.1,1.1,0,1,1,0,2.2Z" transform="translate(-381.769 -254.575)" fill="#e4e4e4"/>
    <path id="패스_34" data-name="패스 34" d="M758.333,314.7H743.707a1.1,1.1,0,1,1,0-2.2h14.626a1.1,1.1,0,1,1,0,2.2Z" transform="translate(-381.77 -260.039)" fill="#e4e4e4"/>
    <path id="패스_35" data-name="패스 35" d="M777.447,335.252h-33.74a1.1,1.1,0,0,1,0-2.2h33.74a1.1,1.1,0,1,1,0,2.2Z" transform="translate(-381.769 -271.481)" fill="#5cdaa7"/>
    <path id="패스_36" data-name="패스 36" d="M768.584,345.064H743.707a1.1,1.1,0,0,1,0-2.2h24.877a1.1,1.1,0,1,1,0,2.2Z" transform="translate(-381.77 -276.945)" fill="#5cdaa7"/>
    <path id="패스_37" data-name="패스 37" d="M758.333,354.875H743.707a1.1,1.1,0,1,1,0-2.2h14.626a1.1,1.1,0,0,1,0,2.2Z" transform="translate(-381.77 -282.408)" fill="#5cdaa7"/>
    <path id="패스_38" data-name="패스 38" d="M777.447,375.425h-33.74a1.1,1.1,0,0,1,0-2.2h33.74a1.1,1.1,0,1,1,0,2.2Z" transform="translate(-381.769 -293.851)" fill="#e4e4e4"/>
    <path id="패스_39" data-name="패스 39" d="M777.447,385.236h-33.74a1.1,1.1,0,0,1,0-2.2h33.74a1.1,1.1,0,1,1,0,2.2Z" transform="translate(-381.77 -299.314)" fill="#e4e4e4"/>
    <path id="패스_40" data-name="패스 40" d="M758.333,395.048H743.707a1.1,1.1,0,1,1,0-2.2h14.626a1.1,1.1,0,0,1,0,2.2Z" transform="translate(-381.77 -304.778)" fill="#e4e4e4"/>
  </g>
</svg>
