<svg xmlns="http://www.w3.org/2000/svg" width="53.451" height="40" viewBox="0 0 53.451 40">
  <path id="합치기_1" data-name="합치기 1" d="M19.166,39.973c-.341-.017-.687-.043-1.026-.076s-.678-.077-1.012-.128-.666-.109-1-.175-.654-.141-.977-.223-.643-.173-.958-.27-.63-.2-.939-.314-.616-.232-.918-.358-.6-.26-.895-.4-.586-.288-.871-.442-.57-.315-.847-.481-.552-.341-.819-.52-.535-.366-.793-.557-.515-.391-.763-.594-.495-.415-.733-.629-.474-.437-.7-.661-.453-.459-.67-.695-.43-.481-.635-.725-.407-.5-.6-.756-.382-.519-.563-.784-.357-.538-.526-.812-.331-.555-.486-.837-.305-.573-.446-.863-.278-.589-.405-.886-.249-.6-.362-.908-.22-.618-.318-.93S.718,25.315.636,25s-.159-.644-.226-.967-.127-.657-.177-.986-.095-.667-.129-1-.061-.678-.078-1.015S0,20.342,0,20s.009-.688.026-1.029.044-.68.078-1.016.077-.67.129-1,.11-.66.177-.985S.553,15.321.636,15s.174-.636.272-.949.205-.624.318-.93.235-.609.362-.908.264-.595.405-.886.292-.58.446-.862.318-.563.486-.838.345-.546.526-.811.371-.529.563-.785.4-.509.6-.755.418-.49.635-.726.442-.469.67-.694.464-.448.7-.662.484-.426.733-.629.506-.4.763-.593.526-.379.793-.558.544-.354.819-.52.562-.329.847-.482.579-.3.871-.442.594-.275.895-.4.61-.247.918-.358S13.883,1,14.2.9s.638-.188.958-.269.652-.157.977-.224.663-.125,1-.175S17.8.137,18.14.1s.684-.06,1.026-.077S19.86,0,20.206,0s.7.009,1.04.026.687.043,1.027.077.677.077,1.011.127.667.11,1,.175.654.141.977.224S25.9.8,26.214.9s.631.2.94.314.616.232.917.358.6.261.9.4.585.288.871.442.569.315.846.482.552.341.82.52.534.366.792.558l.048.035h0c.011.009.108.088.245.226.085.085.167.175.246.268a4.413,4.413,0,0,1,.273.361,3.551,3.551,0,0,1,.467.962c.029.095.052.19.071.284s.033.2.042.3a2.614,2.614,0,0,1,.008.314,2.687,2.687,0,0,1-.03.327l0,.018,0,.02h0c-.02.135-.038.251-.061.368a3.222,3.222,0,0,1-.092.362,4.5,4.5,0,0,1-.166.445c-.074.174-.167.375-.284.615a3.407,3.407,0,0,1-.234.4c-.088.131-.194.275-.313.426-.208.263-.461.552-.752.859s-.551.563-.725.728c-.215.206-.38.356-.463.427-.277.193-.513.351-.7.469a2.145,2.145,0,0,1-.854.216,1.163,1.163,0,0,1-.127-.006,4.914,4.914,0,0,1-.626-.114c-.173-.043-.349-.094-.524-.155-.3-.1-.49-.194-.491-.2v0L27.2,11.9c-.268-.213-.551-.417-.839-.6s-.592-.366-.9-.527-.629-.31-.953-.442-.663-.252-1-.354c-.17-.05-.344-.1-.517-.141s-.352-.082-.527-.117-.358-.066-.537-.093-.364-.049-.545-.067-.369-.031-.554-.04-.374-.014-.561-.014-.375,0-.562.014-.371.023-.554.04-.365.04-.545.067-.36.058-.536.093-.354.074-.527.117-.347.091-.517.141c-.338.1-.675.22-1,.354s-.644.28-.953.442-.609.338-.9.527-.571.391-.839.6-.528.441-.774.678-.482.488-.7.746-.433.53-.627.808-.38.571-.546.866-.322.606-.459.918c-.069.157-.135.317-.2.477s-.119.324-.171.488-.1.332-.147.5-.086.338-.122.508-.068.345-.1.517-.051.351-.069.526-.033.356-.042.534-.014.36-.014.54,0,.362.014.541.023.356.042.533.041.352.069.526.059.347.1.517.077.341.122.509.094.334.147.5.11.328.171.488.126.319.2.477c.137.311.292.62.459.917a10.208,10.208,0,0,0,.546.866c.194.278.406.55.627.809s.458.509.7.745.506.464.774.678.551.417.839.6.592.365.9.526.63.31.953.442.663.252,1,.354c.17.051.344.1.517.141s.351.083.527.117.357.067.536.093.364.049.545.067.37.031.554.041.375.014.562.014.374,0,.561-.014.371-.023.554-.041.365-.04.545-.067.36-.058.537-.093.354-.074.527-.117.346-.091.517-.141c.338-.1.676-.221,1-.354s.644-.28.953-.442.609-.337.9-.526c.2-.133.407-.275.6-.422v.009c.013-.009.13-.085.3-.177.106-.058.212-.111.315-.158a3.765,3.765,0,0,1,.369-.148c.121-.041.239-.076.349-.1s.2-.045.287-.061a3.213,3.213,0,0,1,.425-.041h.01a1.391,1.391,0,0,1,.292.047,3.536,3.536,0,0,1,.451.147,3.931,3.931,0,0,1,.526.252,3.206,3.206,0,0,1,.513.367,5.4,5.4,0,0,1,.6.619c.161.2.3.4.484.663h0c.089.128.19.274.306.437.134.187.266.386.4.591.1.165.2.333.3.5.16.283.25.468.255.476a2.523,2.523,0,0,1,.152.274,3.248,3.248,0,0,1,.132.31,3.128,3.128,0,0,1,.115.4,3.657,3.657,0,0,1,.067.368,3.269,3.269,0,0,1,.012.33v.007c0,.056,0,.108,0,.15h0c0,.1,0,.186,0,.277a2.542,2.542,0,0,1-.034.319,3.07,3.07,0,0,1-.243.579,5.723,5.723,0,0,1-.317.524c-.108.161-.209.3-.275.381s-.112.14-.117.147l.006,0c-.114.089-.229.176-.344.261-.258.191-.525.379-.792.557s-.544.355-.82.52-.562.328-.846.481-.579.3-.871.442-.595.274-.9.4-.61.247-.917.358-.625.218-.94.314-.638.188-.958.27-.652.157-.977.223-.663.125-1,.175-.674.094-1.011.128-.685.059-1.027.076-.694.026-1.04.026S19.51,39.992,19.166,39.973ZM47.192,25.827a5.494,5.494,0,0,1-1.108-.234c-.176-.057-.351-.124-.521-.2s-.336-.157-.5-.248-.317-.19-.468-.3-.3-.22-.437-.339-.275-.247-.4-.381-.251-.274-.366-.418-.226-.3-.327-.454-.2-.32-.284-.486-.168-.341-.239-.516-.136-.358-.191-.542-.1-.374-.14-.564-.067-.39-.086-.586-.03-.4-.03-.6.01-.4.03-.6.048-.392.086-.585.085-.38.14-.565.119-.365.191-.542.152-.348.239-.515.182-.329.284-.486.211-.309.327-.454.238-.286.366-.419.264-.261.4-.381.287-.234.437-.339.309-.205.468-.3a5.53,5.53,0,0,1,1.562-.592,5.536,5.536,0,0,1,2.289,0,5.457,5.457,0,0,1,.544.146,5.53,5.53,0,0,1,.521.2c.168.074.336.158.5.248s.317.189.468.3.3.22.437.339.274.248.4.381.251.274.366.419.225.3.327.454.2.32.284.486.168.34.239.515.136.359.191.542a6.157,6.157,0,0,1,.226,1.15c.02.2.03.4.03.6s-.01.4-.03.6a5.817,5.817,0,0,1-.086.586,5.737,5.737,0,0,1-.139.564c-.055.184-.119.365-.191.542s-.152.348-.239.516-.183.329-.284.486-.211.308-.327.454-.239.285-.366.418-.264.261-.4.381-.287.234-.437.339-.309.205-.468.3-.329.174-.5.248-.346.141-.521.2a5.524,5.524,0,0,1-2.27.234Zm-2.408-5.891a3.006,3.006,0,1,0,3-3.206A3.111,3.111,0,0,0,44.783,19.937Zm-16.56,5.526c-.2-.257-.954-1.99-.961-2.008s-.091-.2-.175-.2H26.9c-.5,0-1.864,0-2.859,0-.706,0-1.085,0-1.128,0-.143.008-.291.2-.292.2-.091.2-.878,1.889-.96,2.008l-.02.03a.6.6,0,0,1-.532.3c-.082.008-.163.012-.239.012a1.79,1.79,0,0,1-.9-.231c-.329-.185-.732-.482-.772-.842a1.373,1.373,0,0,1,.147-.768c.044-.094,1.121-2.286,2.161-4.406,1-2.035,2.029-4.135,2.093-4.267l.04-.084a1.972,1.972,0,0,1,.382-.606,1.2,1.2,0,0,1,.917-.409,1.3,1.3,0,0,1,.96.409,1.917,1.917,0,0,1,.352.533c.029.057.056.111.082.157.079.139,2.464,5.059,3.61,7.423.353.726.585,1.207.607,1.25A1.21,1.21,0,0,1,29.9,25.59a2.02,2.02,0,0,1-.9.265A.921.921,0,0,1,28.223,25.463Zm-3.866-5.489a.679.679,0,1,0,1.211,0,.679.679,0,0,0-1.211,0Zm8.492,5.693a1,1,0,0,1-.383-.076A.97.97,0,0,1,32.3,25.5a1,1,0,0,1-.266-.265.905.905,0,0,1-.091-.167.966.966,0,0,1-.077-.381v-9.51a.971.971,0,0,1,.077-.382.935.935,0,0,1,.091-.167.972.972,0,0,1,.121-.145.983.983,0,0,1,.146-.12.966.966,0,0,1,.167-.09.979.979,0,0,1,.383-.077h5.161a.993.993,0,0,1,.3.054,2.165,2.165,0,0,1,.355.155,3.9,3.9,0,0,1,.783.571,4.616,4.616,0,0,1,.378.4,4.289,4.289,0,0,1,.337.455,3.823,3.823,0,0,1,.271.5,3.044,3.044,0,0,1,.18.543,3.347,3.347,0,0,1,.077.541,3.4,3.4,0,0,1-.009.5,3.53,3.53,0,0,1-.181.83c-.038.106-.08.212-.127.314-.037.082-.076.161-.119.236a2.122,2.122,0,0,1-.122.2s.072.1.169.251c.058.093.114.192.168.292.067.126.13.257.186.386a4.8,4.8,0,0,1,.311,1,3.987,3.987,0,0,1,.069.584c0,.1,0,.207,0,.308s-.014.212-.027.316a3.18,3.18,0,0,1-.43,1.193,4.248,4.248,0,0,1-.361.517,4.872,4.872,0,0,1-.849.817,4.23,4.23,0,0,1-.422.277,1.562,1.562,0,0,1-.678.235Zm1.832-8.775a.1.1,0,0,0-.1.1v5.857a.1.1,0,0,0,.1.1h2.714a.472.472,0,0,0,.075-.013,1.1,1.1,0,0,0,.149-.048,1.083,1.083,0,0,0,.191-.1A1.045,1.045,0,0,0,38,22.625a1.069,1.069,0,0,0,.267-.832,1.317,1.317,0,0,0-.162-.587.973.973,0,0,0-.3-.325,1.044,1.044,0,0,0-.155-.088.989.989,0,0,0-.133-.05.7.7,0,0,0-.129-.03H36.388a.458.458,0,0,1-.241-.062.411.411,0,0,1-.136-.134.536.536,0,0,1-.061-.134.322.322,0,0,1-.014-.061V18.983a.468.468,0,0,1,.014-.069.6.6,0,0,1,.059-.152.446.446,0,0,1,.137-.154.432.432,0,0,1,.242-.072c.079,0,.162,0,.254,0l.316,0h.031l.228,0,.138,0h.006a.582.582,0,0,0,.359-.108.808.808,0,0,0,.21-.673.964.964,0,0,0-.247-.716.513.513,0,0,0-.1-.072.52.52,0,0,0-.105-.044.753.753,0,0,0-.2-.031c-.068,0-.328,0-.776,0C35.743,16.888,34.691,16.891,34.681,16.891Z" fill="#5b8def"/>
</svg>
