<svg xmlns="http://www.w3.org/2000/svg" width="84" height="12" viewBox="0 0 84 12">
  <g id="그룹_210" data-name="그룹 210" transform="translate(-275 -67)">
    <line id="선_1" data-name="선 1" x2="72" transform="translate(281 73)" fill="none" stroke="#5b8def" stroke-width="1"/>
    <g id="타원_2" data-name="타원 2" transform="translate(329 67)" fill="#fff" stroke="#5b8def" stroke-width="1">
      <circle cx="6" cy="6" r="6" stroke="none"/>
      <circle cx="6" cy="6" r="5.5" fill="none"/>
    </g>
    <g id="타원_3" data-name="타원 3" transform="translate(311 67)" fill="#fff" stroke="#5b8def" stroke-width="1">
      <circle cx="6" cy="6" r="6" stroke="none"/>
      <circle cx="6" cy="6" r="5.5" fill="none"/>
    </g>
    <g id="타원_4" data-name="타원 4" transform="translate(293 67)" fill="#fff" stroke="#5b8def" stroke-width="1">
      <circle cx="6" cy="6" r="6" stroke="none"/>
      <circle cx="6" cy="6" r="5.5" fill="none"/>
    </g>
    <g id="패스_467" data-name="패스 467" transform="translate(275 67)" fill="#5b8def">
      <path d="M 6 11.5 C 2.967289924621582 11.5 0.5 9.032710075378418 0.5 6 C 0.5 2.967289924621582 2.967289924621582 0.5 6 0.5 C 9.032710075378418 0.5 11.5 2.967289924621582 11.5 6 C 11.5 9.032710075378418 9.032710075378418 11.5 6 11.5 Z" stroke="none"/>
      <path d="M 6 1 C 3.242989540100098 1 1 3.242989540100098 1 6 C 1 8.757009506225586 3.242989540100098 11 6 11 C 8.757009506225586 11 11 8.757009506225586 11 6 C 11 3.242989540100098 8.757009506225586 1 6 1 M 6 0 C 9.31371021270752 0 12 2.68628978729248 12 6 C 12 9.31371021270752 9.31371021270752 12 6 12 C 2.68628978729248 12 0 9.31371021270752 0 6 C 0 2.68628978729248 2.68628978729248 0 6 0 Z" stroke="none" fill="#5b8def"/>
    </g>
    <g id="타원_31" data-name="타원 31" transform="translate(347 67)" fill="#fff" stroke="#5b8def" stroke-width="1">
      <circle cx="6" cy="6" r="6" stroke="none"/>
      <circle cx="6" cy="6" r="5.5" fill="none"/>
    </g>
    <g id="패스_468" data-name="패스 468" transform="translate(275 67)" fill="#5b8def">
      <path d="M 6 11.5 C 2.967289924621582 11.5 0.5 9.032710075378418 0.5 6 C 0.5 2.967289924621582 2.967289924621582 0.5 6 0.5 C 9.032710075378418 0.5 11.5 2.967289924621582 11.5 6 C 11.5 9.032710075378418 9.032710075378418 11.5 6 11.5 Z" stroke="none"/>
      <path d="M 6 1 C 3.242989540100098 1 1 3.242989540100098 1 6 C 1 8.757009506225586 3.242989540100098 11 6 11 C 8.757009506225586 11 11 8.757009506225586 11 6 C 11 3.242989540100098 8.757009506225586 1 6 1 M 6 0 C 9.31371021270752 0 12 2.68628978729248 12 6 C 12 9.31371021270752 9.31371021270752 12 6 12 C 2.68628978729248 12 0 9.31371021270752 0 6 C 0 2.68628978729248 2.68628978729248 0 6 0 Z" stroke="none" fill="#5b8def"/>
    </g>
  </g>
</svg>
