<svg xmlns="http://www.w3.org/2000/svg" width="20" height="20" viewBox="0 0 20 20">
  <g id="패스_41" data-name="패스 41" fill="#fff">
    <path d="M 14.28571033477783 19 L 5.714290142059326 19 C 3.114820003509521 19 1 16.88517951965332 1 14.28571033477783 L 1 5.714290142059326 C 1 3.114820003509521 3.114820003509521 1 5.714290142059326 1 L 14.28571033477783 1 C 16.88517951965332 1 19 3.114820003509521 19 5.714290142059326 L 19 14.28571033477783 C 19 16.88517951965332 16.88517951965332 19 14.28571033477783 19 Z" stroke="none"/>
    <path d="M 5.714289665222168 2 C 3.666219711303711 2 2 3.666219711303711 2 5.714289665222168 L 2 14.28570938110352 C 2 16.33378028869629 3.666219711303711 18 5.714289665222168 18 L 14.28570938110352 18 C 16.33378028869629 18 18 16.33378028869629 18 14.28570938110352 L 18 5.714289665222168 C 18 3.666219711303711 16.33378028869629 2 14.28570938110352 2 L 5.714289665222168 2 M 5.714289665222168 0 L 14.28570938110352 0 C 17.44162940979004 0 20 2.558370590209961 20 5.714289665222168 L 20 14.28570938110352 C 20 17.44162940979004 17.44162940979004 20 14.28570938110352 20 L 5.714289665222168 20 C 2.558370590209961 20 0 17.44162940979004 0 14.28570938110352 L 0 5.714289665222168 C 0 2.558370590209961 2.558370590209961 0 5.714289665222168 0 Z" stroke="none" fill="#919191"/>
  </g>
</svg>
